<svg width="41" height="43" viewBox="0 0 41 43" fill="none" xmlns="http://www.w3.org/2000/svg">
<path d="M11 2C7.42 4.3 5 8.36 5 13C5 17.64 7.42 21.7 11.06 24C4.92 24 0 19.08 0 13C0 10.0826 1.15893 7.28473 3.22183 5.22183C5.28473 3.15893 8.08262 2 11 2ZM34.14 5L37 7.86L5.86 39L3 36.14L34.14 5ZM21.78 9.86L18.82 8L15.94 10L16.78 6.6L14 4.48L17.5 4.24L18.66 0.940002L20 4.2L23.46 4.26L20.76 6.52L21.78 9.86ZM15.18 17.08L12.86 15.62L10.62 17.18L11.3 14.54L9.12 12.88L11.84 12.7L12.74 10.12L13.76 12.66L16.48 12.72L14.38 14.46L15.18 17.08ZM34 25C34 27.9174 32.8411 30.7153 30.7782 32.7782C28.7153 34.8411 25.9174 36 23 36C20.56 36 18.3 35.2 16.48 33.86L31.86 18.48C33.2 20.3 34 22.56 34 25ZM25.2 38.16L30.74 35.86L30.26 42.56L25.2 38.16ZM33.86 32.76L36.16 27.22L40.56 32.3L33.86 32.76ZM36.16 22.84L33.88 17.28L40.56 17.76L36.16 22.84ZM15.26 35.86L20.8 38.16L15.74 42.54L15.26 35.86Z" fill="#2E4FFD"/>
</svg>
